<mxfile host="65bd71144e">
    <diagram id="C5RBs43oDa-KdzZeNtuy" name="Page-1">
        <mxGraphModel dx="1850" dy="541" grid="1" gridSize="10" guides="1" tooltips="1" connect="1" arrows="1" fold="1" page="1" pageScale="1" pageWidth="827" pageHeight="1169" math="0" shadow="0">
            <root>
                <mxCell id="0"/>
                <mxCell id="1" parent="0"/>
                <mxCell id="User" value="&lt;p style=&quot;margin:0px;margin-top:4px;text-align:center;&quot;&gt;&lt;b&gt;User&lt;/b&gt;&lt;/p&gt;&lt;hr size=&quot;1&quot;&gt;&lt;p style=&quot;margin:0px;margin-left:4px;&quot;&gt;+ id : bigint&lt;br&gt;+ name : string&lt;br&gt;+ email : string&lt;br&gt;+ email_verified_at : timestamp&lt;br&gt;+ password : string&lt;br&gt;+ remember_token : string&lt;br&gt;+ role : enum [admin, staff, viewer]&lt;br&gt;+ created_at : timestamp&lt;br&gt;+ updated_at : timestamp&lt;/p&gt;&lt;hr size=&quot;1&quot;&gt;&lt;p style=&quot;margin:0px;margin-left:4px;&quot;&gt;+ register() : void&lt;br&gt;+ login() : boolean&lt;br&gt;+ updateProfile() : void&lt;br&gt;+ resetPassword() : void&lt;br&gt;+ createProduct(product: Product) : void&lt;br&gt;+ getProduct(productId: bigint) : Product&lt;br&gt;+ updateProduct(productId: bigint, data) : void&lt;br&gt;+ deleteProduct(productId: bigint) : void&lt;br&gt;+ getWarehouses() : Warehouse[]&lt;br&gt;+ transferToStore(productId, warehouseId, quantity) : boolean&lt;/p&gt;" style="verticalAlign=top;align=left;overflow=fill;fontSize=12;fontFamily=Helvetica;html=1;" parent="1" vertex="1">
                    <mxGeometry x="80" y="360" width="280" height="330" as="geometry"/>
                </mxCell>
                <mxCell id="PasswordResetToken" value="&lt;p style=&quot;margin:0px;margin-top:4px;text-align:center;&quot;&gt;&lt;b&gt;PasswordResetToken&lt;/b&gt;&lt;/p&gt;&lt;hr size=&quot;1&quot;&gt;&lt;p style=&quot;margin:0px;margin-left:4px;&quot;&gt;+ email : string&lt;br&gt;+ token : string&lt;br&gt;+ created_at : timestamp&lt;/p&gt;&lt;hr size=&quot;1&quot;&gt;&lt;p style=&quot;margin:0px;margin-left:4px;&quot;&gt;+ createToken(email: string) : string&lt;br&gt;+ validateToken(token: string) : boolean&lt;/p&gt;" style="verticalAlign=top;align=left;overflow=fill;fontSize=12;fontFamily=Helvetica;html=1;" parent="1" vertex="1">
                    <mxGeometry x="550" y="260" width="240" height="120" as="geometry"/>
                </mxCell>
                <mxCell id="Session" value="&lt;p style=&quot;margin:0px;margin-top:4px;text-align:center;&quot;&gt;&lt;b&gt;Session&lt;/b&gt;&lt;/p&gt;&lt;hr size=&quot;1&quot;&gt;&lt;p style=&quot;margin:0px;margin-left:4px;&quot;&gt;+ id : string&lt;br&gt;+ user_id : bigint&lt;br&gt;+ ip_address : string&lt;br&gt;+ user_agent : text&lt;br&gt;+ payload : longText&lt;br&gt;+ last_activity : int&lt;/p&gt;&lt;hr size=&quot;1&quot;&gt;&lt;p style=&quot;margin:0px;margin-left:4px;&quot;&gt;+ createSession(userId: bigint) : void&lt;br&gt;+ invalidateSession() : void&lt;/p&gt;" style="verticalAlign=top;align=left;overflow=fill;fontSize=12;fontFamily=Helvetica;html=1;" parent="1" vertex="1">
                    <mxGeometry x="550" y="445" width="240" height="160" as="geometry"/>
                </mxCell>
                <mxCell id="Cache" value="&lt;p style=&quot;margin:0px;margin-top:4px;text-align:center;&quot;&gt;&lt;b&gt;Cache&lt;/b&gt;&lt;/p&gt;&lt;hr size=&quot;1&quot;&gt;&lt;p style=&quot;margin:0px;margin-left:4px;&quot;&gt;+ key : string&lt;br&gt;+ value : mediumText&lt;br&gt;+ expiration : int&lt;/p&gt;&lt;hr size=&quot;1&quot;&gt;&lt;p style=&quot;margin:0px;margin-left:4px;&quot;&gt;+ get(key: string) : string&lt;br&gt;+ set(key: string, value: string, expiration: int) : void&lt;br&gt;+ delete(key: string) : void&lt;/p&gt;" style="verticalAlign=top;align=left;overflow=fill;fontSize=12;fontFamily=Helvetica;html=1;" parent="1" vertex="1">
                    <mxGeometry x="1080" y="30" width="280" height="140" as="geometry"/>
                </mxCell>
                <mxCell id="CacheLock" value="&lt;p style=&quot;margin:0px;margin-top:4px;text-align:center;&quot;&gt;&lt;b&gt;CacheLock&lt;/b&gt;&lt;/p&gt;&lt;hr size=&quot;1&quot;&gt;&lt;p style=&quot;margin:0px;margin-left:4px;&quot;&gt;+ key : string&lt;br&gt;+ owner : string&lt;br&gt;+ expiration : int&lt;/p&gt;&lt;hr size=&quot;1&quot;&gt;&lt;p style=&quot;margin:0px;margin-left:4px;&quot;&gt;+ acquireLock(key: string) : boolean&lt;br&gt;+ releaseLock(key: string) : void&lt;/p&gt;" style="verticalAlign=top;align=left;overflow=fill;fontSize=12;fontFamily=Helvetica;html=1;" parent="1" vertex="1">
                    <mxGeometry x="1100" y="360" width="240" height="120" as="geometry"/>
                </mxCell>
                <mxCell id="Category" value="&lt;p style=&quot;margin:0px;margin-top:4px;text-align:center;&quot;&gt;&lt;b&gt;Category&lt;/b&gt;&lt;/p&gt;&lt;hr size=&quot;1&quot;&gt;&lt;p style=&quot;margin:0px;margin-left:4px;&quot;&gt;+ id : bigint&lt;br&gt;+ name : string&lt;br&gt;+ created_at : timestamp&lt;br&gt;+ updated_at : timestamp&lt;/p&gt;&lt;hr size=&quot;1&quot;&gt;&lt;p style=&quot;margin:0px;margin-left:4px;&quot;&gt;+ create() : void&lt;br&gt;+ update() : void&lt;br&gt;+ delete() : void&lt;br&gt;+ getProducts() : Product[]&lt;/p&gt;" style="verticalAlign=top;align=left;overflow=fill;fontSize=12;fontFamily=Helvetica;html=1;" parent="1" vertex="1">
                    <mxGeometry x="-320" y="720" width="180" height="170" as="geometry"/>
                </mxCell>
                <mxCell id="Warehouse" value="&lt;p style=&quot;margin:0px;margin-top:4px;text-align:center;&quot;&gt;&lt;b&gt;Warehouse&lt;/b&gt;&lt;/p&gt;&lt;hr size=&quot;1&quot;&gt;&lt;p style=&quot;margin:0px;margin-left:4px;&quot;&gt;+ id : bigint&lt;br&gt;+ name : string&lt;br&gt;+ location : string&lt;br&gt;+ created_at : timestamp&lt;br&gt;+ updated_at : timestamp&lt;/p&gt;&lt;hr size=&quot;1&quot;&gt;&lt;p style=&quot;margin:0px;margin-left:4px;&quot;&gt;+ create() : void&lt;br&gt;+ update() : void&lt;br&gt;+ delete() : void&lt;br&gt;+ getInventories() : Inventory[]&lt;br&gt;+ getProducts() : Product[]&lt;/p&gt;" style="verticalAlign=top;align=left;overflow=fill;fontSize=12;fontFamily=Helvetica;html=1;" parent="1" vertex="1">
                    <mxGeometry x="120" y="30" width="200" height="200" as="geometry"/>
                </mxCell>
                <mxCell id="Inventory" value="&lt;p style=&quot;margin:0px;margin-top:4px;text-align:center;&quot;&gt;&lt;b&gt;Inventory&lt;/b&gt;&lt;/p&gt;&lt;hr size=&quot;1&quot;&gt;&lt;p style=&quot;margin:0px;margin-left:4px;&quot;&gt;+ id : bigint&lt;br&gt;+ product_id : bigint&lt;br&gt;+ warehouse_id : bigint&lt;br&gt;+ quantity : int&lt;br&gt;+ created_at : timestamp&lt;br&gt;+ updated_at : timestamp&lt;/p&gt;&lt;hr size=&quot;1&quot;&gt;&lt;p style=&quot;margin:0px;margin-left:4px;&quot;&gt;+ create() : void&lt;br&gt;+ adjustQuantity(delta: int) : void&lt;br&gt;+ getQuantity() : int&lt;br&gt;+ getProduct() : Product&lt;br&gt;+ getWarehouse() : Warehouse&lt;br&gt;+ transferToStore(quantity: int) : boolean&lt;/p&gt;" style="verticalAlign=top;align=left;overflow=fill;fontSize=12;fontFamily=Helvetica;html=1;" parent="1" vertex="1">
                    <mxGeometry x="-670" y="130" width="220" height="220" as="geometry"/>
                </mxCell>
                <mxCell id="StockMovement" value="&lt;p style=&quot;margin:0px;margin-top:4px;text-align:center;&quot;&gt;&lt;b&gt;StockMovement&lt;/b&gt;&lt;/p&gt;&lt;hr size=&quot;1&quot;&gt;&lt;p style=&quot;margin:0px;margin-left:4px;&quot;&gt;+ id : bigint&lt;br&gt;+ product_id : bigint&lt;br&gt;+ warehouse_id : bigint&lt;br&gt;+ type : enum [IN, OUT]&lt;br&gt;+ quantity : int&lt;br&gt;+ date : timestamp&lt;br&gt;+ reference_note : string&lt;br&gt;+ created_at : timestamp&lt;br&gt;+ updated_at : timestamp&lt;/p&gt;&lt;hr size=&quot;1&quot;&gt;&lt;p style=&quot;margin:0px;margin-left:4px;&quot;&gt;+ recordMovement() : void&lt;br&gt;+ reverseMovement() : void&lt;br&gt;+ notifyStoreReceived() : boolean&lt;br&gt;+ getMovementsByProduct(productId: bigint) : StockMovement[]&lt;br&gt;+ getMovementsByWarehouse(warehouseId: bigint) : StockMovement[]&lt;/p&gt;" style="verticalAlign=top;align=left;overflow=fill;fontSize=12;fontFamily=Helvetica;html=1;" parent="1" vertex="1">
                    <mxGeometry x="-770" y="585" width="393" height="260" as="geometry"/>
                </mxCell>
                <mxCell id="Store" value="&lt;p style=&quot;margin:0px;margin-top:4px;text-align:center;&quot;&gt;&lt;b&gt;Store&lt;/b&gt;&lt;/p&gt;&lt;hr size=&quot;1&quot;&gt;&lt;p style=&quot;margin:0px;margin-left:4px;&quot;&gt;+ id : bigint&lt;br&gt;+ name : string&lt;br&gt;+ location : string&lt;br&gt;+ created_at : timestamp&lt;br&gt;+ updated_at : timestamp&lt;/p&gt;&lt;hr size=&quot;1&quot;&gt;&lt;p style=&quot;margin:0px;margin-left:4px;&quot;&gt;+ create() : void&lt;br&gt;+ update() : void&lt;br&gt;+ delete() : void&lt;br&gt;+ receiveStock(productId: bigint, quantity: int) : boolean&lt;br&gt;+ returnStock(productId: bigint, quantity: int) : boolean&lt;/p&gt;" style="verticalAlign=top;align=left;overflow=fill;fontSize=12;fontFamily=Helvetica;html=1;" parent="1" vertex="1">
                    <mxGeometry x="90" y="800" width="240" height="180" as="geometry"/>
                </mxCell>
                <mxCell id="User-PasswordReset" style="edgeStyle=orthogonalEdgeStyle;rounded=0;orthogonalLoop=1;jettySize=auto;html=1;endArrow=open;endFill=0;" parent="1" source="User" target="PasswordResetToken" edge="1">
                    <mxGeometry relative="1" as="geometry">
                        <Array as="points">
                            <mxPoint x="455" y="440"/>
                            <mxPoint x="455" y="320"/>
                        </Array>
                    </mxGeometry>
                </mxCell>
                <mxCell id="User-PasswordReset-Label" value="1" style="edgeLabel;html=1;align=center;verticalAlign=middle;resizable=0;points=[];" parent="User-PasswordReset" connectable="0" vertex="1">
                    <mxGeometry x="-0.8" y="-1" relative="1" as="geometry">
                        <mxPoint as="offset"/>
                    </mxGeometry>
                </mxCell>
                <mxCell id="User-PasswordReset-Label2" value="0..*" style="edgeLabel;html=1;align=center;verticalAlign=middle;resizable=0;points=[];" parent="User-PasswordReset" connectable="0" vertex="1">
                    <mxGeometry x="0.8" y="1" relative="1" as="geometry">
                        <mxPoint as="offset"/>
                    </mxGeometry>
                </mxCell>
                <mxCell id="User-Session" style="edgeStyle=orthogonalEdgeStyle;rounded=0;orthogonalLoop=1;jettySize=auto;html=1;endArrow=open;endFill=0;" parent="1" source="User" target="Session" edge="1">
                    <mxGeometry relative="1" as="geometry"/>
                </mxCell>
                <mxCell id="User-Session-Label" value="1" style="edgeLabel;html=1;align=center;verticalAlign=middle;resizable=0;points=[];" parent="User-Session" connectable="0" vertex="1">
                    <mxGeometry x="-0.8" relative="1" as="geometry">
                        <mxPoint as="offset"/>
                    </mxGeometry>
                </mxCell>
                <mxCell id="User-Session-Label2" value="0..*" style="edgeLabel;html=1;align=center;verticalAlign=middle;resizable=0;points=[];" parent="User-Session" connectable="0" vertex="1">
                    <mxGeometry x="0.8" relative="1" as="geometry">
                        <mxPoint as="offset"/>
                    </mxGeometry>
                </mxCell>
                <mxCell id="User-Product" style="edgeStyle=orthogonalEdgeStyle;rounded=0;orthogonalLoop=1;jettySize=auto;html=1;endArrow=open;endFill=0;" parent="1" source="User" target="Product" edge="1">
                    <mxGeometry relative="1" as="geometry">
                        <Array as="points">
                            <mxPoint y="460"/>
                            <mxPoint y="460"/>
                        </Array>
                    </mxGeometry>
                </mxCell>
                <mxCell id="User-Product-Label" value="1" style="edgeLabel;html=1;align=center;verticalAlign=middle;resizable=0;points=[];" parent="User-Product" connectable="0" vertex="1">
                    <mxGeometry x="-0.8" relative="1" as="geometry">
                        <mxPoint as="offset"/>
                    </mxGeometry>
                </mxCell>
                <mxCell id="User-Product-Label2" value="0..*" style="edgeLabel;html=1;align=center;verticalAlign=middle;resizable=0;points=[];" parent="User-Product" connectable="0" vertex="1">
                    <mxGeometry x="0.8" relative="1" as="geometry">
                        <mxPoint as="offset"/>
                    </mxGeometry>
                </mxCell>
                <mxCell id="User-Product-Label3" value="manages" style="edgeLabel;html=1;align=center;verticalAlign=middle;resizable=0;points=[];" parent="User-Product" connectable="0" vertex="1">
                    <mxGeometry relative="1" as="geometry">
                        <mxPoint as="offset"/>
                    </mxGeometry>
                </mxCell>
                <mxCell id="Category-Product" style="edgeStyle=orthogonalEdgeStyle;rounded=0;orthogonalLoop=1;jettySize=auto;html=1;endArrow=diamond;endFill=0;" parent="1" source="Category" target="Product" edge="1">
                    <mxGeometry relative="1" as="geometry"/>
                </mxCell>
                <mxCell id="Category-Product-Label" value="1" style="edgeLabel;html=1;align=center;verticalAlign=middle;resizable=0;points=[];" parent="Category-Product" connectable="0" vertex="1">
                    <mxGeometry x="-0.8" relative="1" as="geometry">
                        <mxPoint as="offset"/>
                    </mxGeometry>
                </mxCell>
                <mxCell id="Category-Product-Label2" value="0..*" style="edgeLabel;html=1;align=center;verticalAlign=middle;resizable=0;points=[];" parent="Category-Product" connectable="0" vertex="1">
                    <mxGeometry x="0.8" relative="1" as="geometry">
                        <mxPoint as="offset"/>
                    </mxGeometry>
                </mxCell>
                <mxCell id="Cache-CacheLock" style="edgeStyle=orthogonalEdgeStyle;rounded=0;orthogonalLoop=1;jettySize=auto;html=1;endArrow=none;endFill=0;" parent="1" source="Cache" target="CacheLock" edge="1">
                    <mxGeometry relative="1" as="geometry"/>
                </mxCell>
                <mxCell id="Cache-CacheLock-Label" value="1" style="edgeLabel;html=1;align=center;verticalAlign=middle;resizable=0;points=[];" parent="Cache-CacheLock" connectable="0" vertex="1">
                    <mxGeometry x="-0.8" relative="1" as="geometry">
                        <mxPoint as="offset"/>
                    </mxGeometry>
                </mxCell>
                <mxCell id="Cache-CacheLock-Label2" value="1" style="edgeLabel;html=1;align=center;verticalAlign=middle;resizable=0;points=[];" parent="Cache-CacheLock" connectable="0" vertex="1">
                    <mxGeometry x="0.8" relative="1" as="geometry">
                        <mxPoint as="offset"/>
                    </mxGeometry>
                </mxCell>
                <mxCell id="Product-Inventory" style="edgeStyle=orthogonalEdgeStyle;rounded=0;orthogonalLoop=1;jettySize=auto;html=1;endArrow=open;endFill=0;" parent="1" source="Product" target="Inventory" edge="1">
                    <mxGeometry relative="1" as="geometry"/>
                </mxCell>
                <mxCell id="Product-Inventory-Label" value="1" style="edgeLabel;html=1;align=center;verticalAlign=middle;resizable=0;points=[];" parent="Product-Inventory" connectable="0" vertex="1">
                    <mxGeometry x="-0.8" relative="1" as="geometry">
                        <mxPoint x="24" as="offset"/>
                    </mxGeometry>
                </mxCell>
                <mxCell id="Product-Inventory-Label2" value="0..*" style="edgeLabel;html=1;align=center;verticalAlign=middle;resizable=0;points=[];" parent="Product-Inventory" connectable="0" vertex="1">
                    <mxGeometry x="0.8" relative="1" as="geometry">
                        <mxPoint y="-14" as="offset"/>
                    </mxGeometry>
                </mxCell>
                <mxCell id="Product-StockMovement" style="edgeStyle=orthogonalEdgeStyle;rounded=0;orthogonalLoop=1;jettySize=auto;html=1;endArrow=open;endFill=0;" parent="1" source="Product" target="StockMovement" edge="1">
                    <mxGeometry relative="1" as="geometry">
                        <Array as="points">
                            <mxPoint x="-563" y="550"/>
                        </Array>
                    </mxGeometry>
                </mxCell>
                <mxCell id="Product-StockMovement-Label" value="1" style="edgeLabel;html=1;align=center;verticalAlign=middle;resizable=0;points=[];" parent="Product-StockMovement" connectable="0" vertex="1">
                    <mxGeometry x="-0.8" relative="1" as="geometry">
                        <mxPoint x="14" as="offset"/>
                    </mxGeometry>
                </mxCell>
                <mxCell id="Product-StockMovement-Label2" value="0..*" style="edgeLabel;html=1;align=center;verticalAlign=middle;resizable=0;points=[];" parent="Product-StockMovement" connectable="0" vertex="1">
                    <mxGeometry x="0.8" relative="1" as="geometry">
                        <mxPoint as="offset"/>
                    </mxGeometry>
                </mxCell>
                <mxCell id="Warehouse-Inventory" style="edgeStyle=orthogonalEdgeStyle;rounded=0;orthogonalLoop=1;jettySize=auto;html=1;endArrow=open;endFill=0;" parent="1" source="Warehouse" target="Inventory" edge="1">
                    <mxGeometry relative="1" as="geometry">
                        <Array as="points">
                            <mxPoint x="-560" y="90"/>
                        </Array>
                    </mxGeometry>
                </mxCell>
                <mxCell id="Warehouse-Inventory-Label" value="1" style="edgeLabel;html=1;align=center;verticalAlign=middle;resizable=0;points=[];" parent="Warehouse-Inventory" connectable="0" vertex="1">
                    <mxGeometry x="-0.8" relative="1" as="geometry">
                        <mxPoint as="offset"/>
                    </mxGeometry>
                </mxCell>
                <mxCell id="Warehouse-Inventory-Label2" value="0..*" style="edgeLabel;html=1;align=center;verticalAlign=middle;resizable=0;points=[];" parent="Warehouse-Inventory" connectable="0" vertex="1">
                    <mxGeometry x="0.8" relative="1" as="geometry">
                        <mxPoint as="offset"/>
                    </mxGeometry>
                </mxCell>
                <mxCell id="Store-StockMovement" style="edgeStyle=orthogonalEdgeStyle;rounded=0;orthogonalLoop=1;jettySize=auto;html=1;endArrow=open;endFill=0;" parent="1" source="Store" target="StockMovement" edge="1">
                    <mxGeometry relative="1" as="geometry">
                        <Array as="points">
                            <mxPoint x="220" y="1030"/>
                            <mxPoint x="-650" y="1030"/>
                        </Array>
                    </mxGeometry>
                </mxCell>
                <mxCell id="Store-StockMovement-Label" value="1" style="edgeLabel;html=1;align=center;verticalAlign=middle;resizable=0;points=[];" parent="Store-StockMovement" connectable="0" vertex="1">
                    <mxGeometry x="-0.8" relative="1" as="geometry">
                        <mxPoint as="offset"/>
                    </mxGeometry>
                </mxCell>
                <mxCell id="Store-StockMovement-Label2" value="0..*" style="edgeLabel;html=1;align=center;verticalAlign=middle;resizable=0;points=[];" parent="Store-StockMovement" connectable="0" vertex="1">
                    <mxGeometry x="0.8" relative="1" as="geometry">
                        <mxPoint as="offset"/>
                    </mxGeometry>
                </mxCell>
                <mxCell id="Store-StockMovement-Label3" value="generates" style="edgeLabel;html=1;align=center;verticalAlign=middle;resizable=0;points=[];" parent="Store-StockMovement" connectable="0" vertex="1">
                    <mxGeometry relative="1" as="geometry">
                        <mxPoint as="offset"/>
                    </mxGeometry>
                </mxCell>
                <mxCell id="Inventory-StockMovement" style="edgeStyle=orthogonalEdgeStyle;rounded=0;orthogonalLoop=1;jettySize=auto;html=1;endArrow=open;endFill=0;" parent="1" source="Inventory" target="StockMovement" edge="1">
                    <mxGeometry relative="1" as="geometry">
                        <Array as="points">
                            <mxPoint x="-630" y="450"/>
                            <mxPoint x="-630" y="450"/>
                        </Array>
                    </mxGeometry>
                </mxCell>
                <mxCell id="Inventory-StockMovement-Label" value="1" style="edgeLabel;html=1;align=center;verticalAlign=middle;resizable=0;points=[];" parent="Inventory-StockMovement" connectable="0" vertex="1">
                    <mxGeometry x="-0.8" relative="1" as="geometry">
                        <mxPoint y="-14" as="offset"/>
                    </mxGeometry>
                </mxCell>
                <mxCell id="Inventory-StockMovement-Label2" value="0..*" style="edgeLabel;html=1;align=center;verticalAlign=middle;resizable=0;points=[];" parent="Inventory-StockMovement" connectable="0" vertex="1">
                    <mxGeometry x="0.8" relative="1" as="geometry">
                        <mxPoint as="offset"/>
                    </mxGeometry>
                </mxCell>
                <mxCell id="Inventory-StockMovement-Label3" value="triggers" style="edgeLabel;html=1;align=center;verticalAlign=middle;resizable=0;points=[];" parent="Inventory-StockMovement" connectable="0" vertex="1">
                    <mxGeometry relative="1" as="geometry">
                        <mxPoint as="offset"/>
                    </mxGeometry>
                </mxCell>
                <mxCell id="User-Warehouse" style="edgeStyle=orthogonalEdgeStyle;rounded=0;orthogonalLoop=1;jettySize=auto;html=1;endArrow=open;endFill=0;" parent="1" source="User" target="Warehouse" edge="1">
                    <mxGeometry relative="1" as="geometry">
                        <Array as="points">
                            <mxPoint x="220" y="200"/>
                        </Array>
                    </mxGeometry>
                </mxCell>
                <mxCell id="User-Warehouse-Label" value="1" style="edgeLabel;html=1;align=center;verticalAlign=middle;resizable=0;points=[];" parent="User-Warehouse" connectable="0" vertex="1">
                    <mxGeometry x="-0.9" relative="1" as="geometry">
                        <mxPoint as="offset"/>
                    </mxGeometry>
                </mxCell>
                <mxCell id="User-Warehouse-Label2" value="0..*" style="edgeLabel;html=1;align=center;verticalAlign=middle;resizable=0;points=[];" parent="User-Warehouse" connectable="0" vertex="1">
                    <mxGeometry x="0.9" relative="1" as="geometry">
                        <mxPoint as="offset"/>
                    </mxGeometry>
                </mxCell>
                <mxCell id="User-Warehouse-Label3" value="manages" style="edgeLabel;html=1;align=center;verticalAlign=middle;resizable=0;points=[];" parent="User-Warehouse" connectable="0" vertex="1">
                    <mxGeometry relative="1" as="geometry">
                        <mxPoint as="offset"/>
                    </mxGeometry>
                </mxCell>
                <mxCell id="User-Store" style="edgeStyle=orthogonalEdgeStyle;rounded=0;orthogonalLoop=1;jettySize=auto;html=1;endArrow=open;endFill=0;" parent="1" source="User" target="Store" edge="1">
                    <mxGeometry relative="1" as="geometry">
                        <Array as="points">
                            <mxPoint x="210" y="730"/>
                            <mxPoint x="210" y="730"/>
                        </Array>
                    </mxGeometry>
                </mxCell>
                <mxCell id="User-Store-Label" value="1" style="edgeLabel;html=1;align=center;verticalAlign=middle;resizable=0;points=[];" parent="User-Store" connectable="0" vertex="1">
                    <mxGeometry x="-0.95" relative="1" as="geometry">
                        <mxPoint as="offset"/>
                    </mxGeometry>
                </mxCell>
                <mxCell id="User-Store-Label2" value="0..*" style="edgeLabel;html=1;align=center;verticalAlign=middle;resizable=0;points=[];" parent="User-Store" connectable="0" vertex="1">
                    <mxGeometry x="0.95" relative="1" as="geometry">
                        <mxPoint as="offset"/>
                    </mxGeometry>
                </mxCell>
                <mxCell id="User-Store-Label3" value="manages" style="edgeLabel;html=1;align=center;verticalAlign=middle;resizable=0;points=[];" parent="User-Store" connectable="0" vertex="1">
                    <mxGeometry relative="1" as="geometry">
                        <mxPoint as="offset"/>
                    </mxGeometry>
                </mxCell>
                <mxCell id="StockMovement-Store" style="edgeStyle=orthogonalEdgeStyle;rounded=0;orthogonalLoop=1;jettySize=auto;html=1;endArrow=open;endFill=0;" parent="1" source="StockMovement" target="Store" edge="1">
                    <mxGeometry relative="1" as="geometry">
                        <Array as="points">
                            <mxPoint x="-470" y="960"/>
                            <mxPoint x="50" y="960"/>
                            <mxPoint x="50" y="890"/>
                        </Array>
                    </mxGeometry>
                </mxCell>
                <mxCell id="StockMovement-Store-Label" value="0..*" style="edgeLabel;html=1;align=center;verticalAlign=middle;resizable=0;points=[];" parent="StockMovement-Store" connectable="0" vertex="1">
                    <mxGeometry x="-0.8" relative="1" as="geometry">
                        <mxPoint y="-56" as="offset"/>
                    </mxGeometry>
                </mxCell>
                <mxCell id="StockMovement-Store-Label2" value="1" style="edgeLabel;html=1;align=center;verticalAlign=middle;resizable=0;points=[];" parent="StockMovement-Store" connectable="0" vertex="1">
                    <mxGeometry x="0.8" relative="1" as="geometry">
                        <mxPoint as="offset"/>
                    </mxGeometry>
                </mxCell>
                <mxCell id="StockMovement-Store-Label3" value="updates" style="edgeLabel;html=1;align=center;verticalAlign=middle;resizable=0;points=[];" parent="StockMovement-Store" connectable="0" vertex="1">
                    <mxGeometry x="0.3" relative="1" as="geometry">
                        <mxPoint as="offset"/>
                    </mxGeometry>
                </mxCell>
                <mxCell id="2" value="" style="edgeStyle=orthogonalEdgeStyle;rounded=0;orthogonalLoop=1;jettySize=auto;html=1;endArrow=open;endFill=0;" edge="1" parent="1" source="Warehouse" target="Product">
                    <mxGeometry relative="1" as="geometry">
                        <Array as="points"/>
                        <mxPoint x="-90" y="300" as="sourcePoint"/>
                        <mxPoint x="-100" y="820" as="targetPoint"/>
                    </mxGeometry>
                </mxCell>
                <mxCell id="3" value="1" style="edgeLabel;html=1;align=center;verticalAlign=middle;resizable=0;points=[];" connectable="0" vertex="1" parent="2">
                    <mxGeometry x="-0.8" relative="1" as="geometry">
                        <mxPoint as="offset"/>
                    </mxGeometry>
                </mxCell>
                <mxCell id="Product" value="&lt;p style=&quot;margin:0px;margin-top:4px;text-align:center;&quot;&gt;&lt;b&gt;Product&lt;/b&gt;&lt;/p&gt;&lt;hr size=&quot;1&quot;&gt;&lt;p style=&quot;margin:0px;margin-left:4px;&quot;&gt;+ id : bigint&lt;br&gt;+ name : string&lt;br&gt;+ sku : string&lt;br&gt;+ category_id : bigint&lt;br&gt;+ unit : string&lt;br&gt;+ description : text&lt;br&gt;+ created_at : timestamp&lt;br&gt;+ updated_at : timestamp&lt;/p&gt;&lt;hr size=&quot;1&quot;&gt;&lt;p style=&quot;margin:0px;margin-left:4px;&quot;&gt;+ create() : void&lt;br&gt;+ update() : void&lt;br&gt;+ delete() : void&lt;br&gt;+ getStock() : int&lt;br&gt;+ getCategory() : Category&lt;br&gt;+ getInventory(warehouseId: bigint) : Inventory&lt;br&gt;+ getAllInventory() : Inventory[]&lt;/p&gt;" style="verticalAlign=top;align=left;overflow=fill;fontSize=12;fontFamily=Helvetica;html=1;" parent="1" vertex="1">
                    <mxGeometry x="-360" y="370" width="260" height="240" as="geometry"/>
                </mxCell>
            </root>
        </mxGraphModel>
    </diagram>
</mxfile>